<svg width="34" height="15" viewBox="0 0 34 15" fill="none" xmlns="http://www.w3.org/2000/svg">
<path d="M6.25574 10.1364C6.25574 9.72134 6.1239 9.37955 5.86023 9.11099C5.59656 8.83755 5.1571 8.59341 4.54187 8.37857C3.92664 8.15884 3.44812 7.95621 3.10632 7.77066C1.96863 7.16031 1.39978 6.25699 1.39978 5.0607C1.39978 4.25015 1.64636 3.58365 2.13953 3.06119C2.63269 2.53873 3.30164 2.22867 4.14636 2.13101V0.534332H5.31824V2.14566C6.16785 2.26773 6.82458 2.62906 7.28845 3.22964C7.75232 3.82535 7.98425 4.60172 7.98425 5.55875H6.21179C6.21179 4.94351 6.07263 4.46011 5.79431 4.10855C5.52087 3.75211 5.14734 3.57388 4.67371 3.57388C4.20496 3.57388 3.83875 3.70084 3.57507 3.95474C3.3114 4.20865 3.17957 4.57242 3.17957 5.04605C3.17957 5.47086 3.30896 5.81265 3.56775 6.07144C3.83142 6.32535 4.27576 6.56705 4.90076 6.79654C5.52576 7.02603 6.01648 7.23843 6.37292 7.43375C6.72937 7.62906 7.02966 7.85367 7.2738 8.10757C7.51794 8.3566 7.70593 8.64468 7.83777 8.97183C7.9696 9.29898 8.03552 9.68228 8.03552 10.1217C8.03552 10.9469 7.78162 11.6159 7.2738 12.1286C6.77087 12.6413 6.06775 12.944 5.16443 13.0368V14.465H3.99988V13.0441C3.03308 12.9367 2.28845 12.59 1.76599 12.0041C1.24841 11.4181 0.989624 10.6418 0.989624 9.67496H2.76941C2.76941 10.2902 2.92322 10.7663 3.23083 11.1032C3.54333 11.4401 3.98279 11.6086 4.54919 11.6086C5.10583 11.6086 5.5282 11.4743 5.81628 11.2057C6.10925 10.9372 6.25574 10.5807 6.25574 10.1364ZM14.4003 12.9196H12.6278V4.35757L10.0131 5.25113V3.74966L14.1732 2.2189H14.4003V12.9196ZM18.5824 7.6315L19.161 2.25552H24.8885V3.79361H20.6405L20.3475 6.34244C20.8407 6.05923 21.3973 5.91763 22.0175 5.91763C23.0331 5.91763 23.8217 6.24234 24.3832 6.89175C24.9496 7.54117 25.2328 8.41519 25.2328 9.51382C25.2328 10.5978 24.9203 11.4621 24.2953 12.1066C23.6703 12.7462 22.8134 13.0661 21.7245 13.0661C20.7479 13.0661 19.9374 12.7902 19.2928 12.2384C18.6532 11.6818 18.3065 10.9494 18.2528 10.0412H19.974C20.0424 10.5587 20.2279 10.9567 20.5306 11.235C20.8334 11.5085 21.2289 11.6452 21.7172 11.6452C22.264 11.6452 22.6888 11.4499 22.9916 11.0592C23.2992 10.6686 23.453 10.1364 23.453 9.46255C23.453 8.81314 23.2845 8.30045 22.9476 7.92447C22.6107 7.54361 22.1469 7.35318 21.556 7.35318C21.2338 7.35318 20.9603 7.39713 20.7357 7.48502C20.5111 7.56802 20.267 7.73404 20.0033 7.98306L18.5824 7.6315ZM33.5824 8.42984C33.5824 9.96304 33.2943 11.1203 32.7181 11.9015C32.1469 12.6779 31.2753 13.0661 30.1034 13.0661C28.951 13.0661 28.0819 12.6877 27.496 11.9308C26.9149 11.1691 26.6171 10.0436 26.6024 8.55435V6.70865C26.6024 5.17545 26.8881 4.02554 27.4594 3.25894C28.0355 2.49234 28.912 2.10904 30.0887 2.10904C31.2557 2.10904 32.1249 2.48257 32.6962 3.22964C33.2723 3.97672 33.5677 5.09488 33.5824 6.58414V8.42984ZM31.8026 6.43765C31.8026 5.43668 31.6659 4.70425 31.3925 4.24039C31.119 3.77164 30.6844 3.53726 30.0887 3.53726C29.5077 3.53726 29.0804 3.75943 28.807 4.20377C28.5336 4.64322 28.3895 5.3317 28.3749 6.2692V8.68619C28.3749 9.68228 28.514 10.4245 28.7924 10.9128C29.0707 11.401 29.5077 11.6452 30.1034 11.6452C30.6747 11.6452 31.097 11.4206 31.3705 10.9713C31.6439 10.5172 31.788 9.80923 31.8026 8.84732V6.43765Z" fill="#F0A83E"/>
</svg>
