<svg width="34" height="15" viewBox="0 0 34 15" fill="none" xmlns="http://www.w3.org/2000/svg">
<path d="M4.85992 0.542572V2.73251H3.73199V0.542572H4.85992ZM4.72076 12.503V14.4659H3.60016V12.503H4.72076ZM5.82672 10.1373C5.82672 9.8541 5.76813 9.60751 5.65094 9.39755C5.53864 9.18271 5.35309 8.98984 5.0943 8.81894C4.83551 8.64316 4.48883 8.47958 4.05426 8.32822C3.42926 8.10849 2.88239 7.86191 2.41364 7.58847C1.94977 7.31015 1.58844 6.96835 1.32965 6.56308C1.07574 6.15292 0.948792 5.64267 0.948792 5.03232C0.948792 4.43173 1.08551 3.91171 1.35895 3.47226C1.63727 3.03281 2.02301 2.69345 2.51617 2.45419C3.00934 2.21494 3.58551 2.09531 4.24469 2.09531C4.7525 2.09531 5.20905 2.17099 5.61432 2.32236C6.02448 2.47372 6.3736 2.69589 6.66168 2.98886C6.94977 3.28183 7.16949 3.64316 7.32086 4.07285C7.47711 4.49765 7.55524 4.98593 7.55524 5.53769H5.79742C5.79742 5.22519 5.7608 4.94687 5.68756 4.70273C5.6192 4.4537 5.51666 4.24374 5.37994 4.07285C5.24323 3.89706 5.07721 3.76279 4.8819 3.67001C4.69147 3.57724 4.47418 3.53085 4.23004 3.53085C3.88336 3.53085 3.59772 3.59677 3.37311 3.72861C3.1485 3.85556 2.98248 4.03134 2.87506 4.25595C2.77252 4.48056 2.72125 4.73691 2.72125 5.02499C2.72125 5.30331 2.77496 5.54745 2.88239 5.75742C2.98981 5.96738 3.17291 6.15781 3.4317 6.3287C3.69537 6.49472 4.0567 6.66318 4.51569 6.83408C5.14557 7.05869 5.69 7.31015 6.14899 7.58847C6.61285 7.86191 6.9693 8.20126 7.21832 8.60654C7.47223 9.00693 7.59918 9.5123 7.59918 10.1227C7.59918 10.7525 7.4527 11.2872 7.15973 11.7267C6.87164 12.1661 6.46637 12.5006 5.94391 12.7301C5.42633 12.9547 4.8233 13.067 4.13483 13.067C3.70026 13.067 3.26813 13.0108 2.83844 12.8985C2.41364 12.7813 2.02789 12.5909 1.68121 12.3272C1.33453 12.0636 1.05865 11.7144 0.853577 11.2799C0.648499 10.8404 0.545959 10.3033 0.545959 9.66855H2.31842C2.31842 10.0494 2.36969 10.3668 2.47223 10.6207C2.57477 10.8746 2.71393 11.0748 2.88971 11.2213C3.06549 11.3678 3.2608 11.4727 3.47565 11.5362C3.69537 11.5997 3.9151 11.6314 4.13483 11.6314C4.50104 11.6314 4.80865 11.5704 5.05768 11.4483C5.31158 11.3214 5.50201 11.1456 5.62897 10.921C5.7608 10.6915 5.82672 10.4303 5.82672 10.1373ZM16.293 11.5069V12.9132H9.14459V11.7047L12.6163 7.91806C12.9971 7.48837 13.2974 7.11728 13.5172 6.80478C13.7369 6.49228 13.8907 6.21152 13.9786 5.96249C14.0714 5.70859 14.1177 5.46201 14.1177 5.22275C14.1177 4.88583 14.0543 4.59042 13.9273 4.33652C13.8052 4.07773 13.6246 3.87509 13.3853 3.72861C13.1461 3.57724 12.8555 3.50156 12.5137 3.50156C12.1182 3.50156 11.7862 3.58701 11.5176 3.7579C11.2491 3.9288 11.0464 4.16562 10.9097 4.46835C10.773 4.7662 10.7047 5.108 10.7047 5.49374H8.93951C8.93951 4.87363 9.08112 4.30722 9.36432 3.79453C9.64752 3.27695 10.0577 2.86679 10.5948 2.56406C11.1319 2.25644 11.7789 2.10263 12.5357 2.10263C13.2486 2.10263 13.8541 2.22226 14.3521 2.46152C14.8502 2.70078 15.2286 3.04013 15.4874 3.47958C15.751 3.91904 15.8829 4.43906 15.8829 5.03964C15.8829 5.37167 15.8292 5.70126 15.7217 6.02841C15.6143 6.35556 15.4605 6.68271 15.2603 7.00986C15.065 7.33212 14.8331 7.65683 14.5645 7.98398C14.296 8.30624 14.0005 8.63339 13.6783 8.96542L11.3712 11.5069H16.293ZM19.523 7.95468L18.1168 7.61044L18.6954 2.24911H24.4449V3.74326H20.1602L19.8672 6.358C20.0333 6.26035 20.2628 6.16513 20.5557 6.07236C20.8487 5.9747 21.1832 5.92587 21.5591 5.92587C22.0621 5.92587 22.5113 6.00888 22.9068 6.1749C23.3072 6.33603 23.6465 6.57285 23.9249 6.88535C24.2032 7.19296 24.4156 7.56894 24.5621 8.01328C24.7086 8.45273 24.7818 8.94833 24.7818 9.50009C24.7818 9.99326 24.7086 10.4547 24.5621 10.8844C24.4205 11.3141 24.2056 11.6925 23.9175 12.0196C23.6295 12.3468 23.2657 12.6031 22.8262 12.7887C22.3917 12.9693 21.8765 13.0597 21.2808 13.0597C20.8365 13.0597 20.4092 12.9962 19.9991 12.8692C19.5938 12.7374 19.23 12.5445 18.9078 12.2906C18.5855 12.0318 18.3267 11.7144 18.1314 11.3385C17.9361 10.9576 17.8238 10.5206 17.7945 10.0274H19.523C19.567 10.3741 19.6622 10.6695 19.8087 10.9137C19.96 11.1529 20.1602 11.336 20.4092 11.463C20.6583 11.5899 20.9464 11.6534 21.2735 11.6534C21.5714 11.6534 21.8277 11.6021 22.0425 11.4996C22.2574 11.3922 22.4356 11.2408 22.5772 11.0455C22.7237 10.8453 22.8311 10.6109 22.8995 10.3424C22.9727 10.0738 23.0093 9.77597 23.0093 9.44882C23.0093 9.13632 22.9678 8.85068 22.8848 8.59189C22.8067 8.3331 22.6871 8.10849 22.5259 7.91806C22.3697 7.72763 22.1719 7.58115 21.9327 7.47861C21.6934 7.37119 21.4175 7.31747 21.105 7.31747C20.6851 7.31747 20.3629 7.37851 20.1382 7.50058C19.9185 7.62265 19.7134 7.77402 19.523 7.95468ZM33.1461 6.68759V8.43076C33.1461 9.26572 33.063 9.97861 32.897 10.5694C32.7359 11.1554 32.5015 11.6314 32.1939 11.9977C31.8863 12.3639 31.5176 12.6324 31.088 12.8033C30.6631 12.9742 30.1871 13.0597 29.6597 13.0597C29.2398 13.0597 28.8492 13.006 28.4879 12.8985C28.1314 12.7911 27.8091 12.6227 27.5211 12.3932C27.233 12.1637 26.9864 11.8683 26.7813 11.5069C26.5811 11.1407 26.4249 10.7037 26.3126 10.1959C26.2051 9.68808 26.1514 9.0997 26.1514 8.43076V6.68759C26.1514 5.84775 26.2344 5.13974 26.4005 4.56357C26.5665 3.98251 26.8033 3.51132 27.1109 3.14999C27.4185 2.78378 27.7847 2.51767 28.2095 2.35165C28.6392 2.18564 29.1177 2.10263 29.6451 2.10263C30.0699 2.10263 30.4605 2.15634 30.817 2.26376C31.1783 2.3663 31.5005 2.52988 31.7838 2.75449C32.0718 2.9791 32.316 3.27206 32.5162 3.63339C32.7213 3.98984 32.8775 4.42197 32.9849 4.92978C33.0923 5.43271 33.1461 6.01865 33.1461 6.68759ZM31.3809 8.67978V6.42392C31.3809 5.99911 31.3565 5.62558 31.3077 5.30331C31.2589 4.97617 31.1856 4.70029 31.088 4.47568C30.9952 4.24619 30.878 4.06064 30.7364 3.91904C30.5948 3.77255 30.4337 3.66757 30.253 3.6041C30.0723 3.53574 29.8697 3.50156 29.6451 3.50156C29.3716 3.50156 29.1275 3.55527 28.9127 3.66269C28.6978 3.76523 28.5172 3.93124 28.3707 4.16074C28.2242 4.39023 28.1119 4.69296 28.0338 5.06894C27.9605 5.44003 27.9239 5.89169 27.9239 6.42392V8.67978C27.9239 9.10947 27.9483 9.48788 27.9971 9.81503C28.046 10.1422 28.1192 10.4229 28.2169 10.6573C28.3145 10.8868 28.4317 11.0772 28.5684 11.2286C28.71 11.3751 28.8712 11.4825 29.0518 11.5509C29.2374 11.6192 29.44 11.6534 29.6597 11.6534C29.938 11.6534 30.1846 11.5997 30.3995 11.4923C30.6143 11.3849 30.795 11.214 30.9415 10.9796C31.088 10.7403 31.1978 10.4303 31.2711 10.0494C31.3443 9.66855 31.3809 9.21201 31.3809 8.67978Z" fill="#F0A83E"/>
</svg>
