<svg width="33" height="15" viewBox="0 0 33 15" fill="none" xmlns="http://www.w3.org/2000/svg">
<path d="M5.40954 10.1365C5.40954 9.72144 5.2777 9.37964 5.01403 9.11108C4.75036 8.83765 4.31091 8.59351 3.69567 8.37866C3.08044 8.15894 2.60192 7.9563 2.26012 7.77075C1.12243 7.1604 0.553581 6.25708 0.553581 5.06079C0.553581 4.25024 0.800163 3.58374 1.29333 3.06128C1.78649 2.53882 2.45544 2.22876 3.30016 2.1311V0.534424H4.47204V2.14575C5.32165 2.26782 5.97839 2.62915 6.44225 3.22974C6.90612 3.82544 7.13805 4.60181 7.13805 5.55884H5.36559C5.36559 4.9436 5.22643 4.46021 4.94811 4.10864C4.67467 3.7522 4.30114 3.57397 3.82751 3.57397C3.35876 3.57397 2.99255 3.70093 2.72887 3.95483C2.4652 4.20874 2.33337 4.57251 2.33337 5.04614C2.33337 5.47095 2.46276 5.81274 2.72155 6.07153C2.98522 6.32544 3.42956 6.56714 4.05456 6.79663C4.67956 7.02612 5.17028 7.23853 5.52673 7.43384C5.88317 7.62915 6.18346 7.85376 6.4276 8.10767C6.67175 8.35669 6.85973 8.64478 6.99157 8.97192C7.12341 9.29907 7.18932 9.68237 7.18932 10.1218C7.18932 10.947 6.93542 11.616 6.4276 12.1287C5.92467 12.6414 5.22155 12.9441 4.31823 13.0369V14.4651H3.15368V13.0442C2.18688 12.9368 1.44225 12.5901 0.919792 12.0042C0.402214 11.4182 0.143425 10.6418 0.143425 9.67505H1.92321C1.92321 10.2903 2.07702 10.7664 2.38464 11.1033C2.69714 11.4402 3.13659 11.6086 3.703 11.6086C4.25964 11.6086 4.682 11.4744 4.97009 11.2058C5.26305 10.9373 5.40954 10.5808 5.40954 10.1365ZM14.2718 2.20435V3.67651H14.0521C13.056 3.69116 12.2601 3.9646 11.6644 4.49683C11.0687 5.02905 10.7147 5.78345 10.6024 6.76001C11.1737 6.15942 11.9037 5.85913 12.7924 5.85913C13.7347 5.85913 14.4769 6.19116 15.0189 6.85522C15.5658 7.51929 15.8392 8.37622 15.8392 9.42603C15.8392 10.51 15.5194 11.3889 14.8798 12.0627C14.245 12.7317 13.41 13.0662 12.3749 13.0662C11.3104 13.0662 10.4462 12.6731 9.7821 11.887C9.12292 11.1008 8.79333 10.0706 8.79333 8.79614V8.18823C8.79333 6.31812 9.24743 4.85327 10.1556 3.7937C11.0687 2.73413 12.3798 2.20435 14.0887 2.20435H14.2718ZM12.3602 7.29468C11.9696 7.29468 11.6107 7.40454 11.2836 7.62427C10.9613 7.84399 10.7245 8.13696 10.5731 8.50317V9.04517C10.5731 9.83618 10.7391 10.4661 11.0712 10.9348C11.4032 11.3987 11.8329 11.6306 12.3602 11.6306C12.8876 11.6306 13.305 11.4329 13.6127 11.0374C13.9203 10.6418 14.0741 10.1218 14.0741 9.47729C14.0741 8.83276 13.9178 8.30786 13.6053 7.90259C13.2928 7.49731 12.8778 7.29468 12.3602 7.29468ZM17.7362 7.63159L18.3148 2.25562H24.0424V3.7937H19.7943L19.5013 6.34253C19.9945 6.05933 20.5511 5.91772 21.1713 5.91772C22.1869 5.91772 22.9755 6.24243 23.537 6.89185C24.1034 7.54126 24.3866 8.41528 24.3866 9.51392C24.3866 10.5979 24.0741 11.4622 23.4491 12.1067C22.8241 12.7463 21.9672 13.0662 20.8783 13.0662C19.9017 13.0662 19.0912 12.7903 18.4466 12.2385C17.807 11.6819 17.4603 10.9495 17.4066 10.0413H19.1278C19.1962 10.5588 19.3817 10.9568 19.6844 11.2351C19.9872 11.5085 20.3827 11.6453 20.871 11.6453C21.4178 11.6453 21.8426 11.45 22.1454 11.0593C22.453 10.6687 22.6068 10.1365 22.6068 9.46265C22.6068 8.81323 22.4383 8.30054 22.1014 7.92456C21.7645 7.5437 21.3007 7.35327 20.7098 7.35327C20.3876 7.35327 20.1141 7.39722 19.8895 7.48511C19.6649 7.56812 19.4208 7.73413 19.1571 7.98315L17.7362 7.63159ZM32.7362 8.42993C32.7362 9.96313 32.4481 11.1204 31.8719 11.9016C31.3007 12.678 30.4291 13.0662 29.2572 13.0662C28.1049 13.0662 27.2357 12.6877 26.6498 11.9309C26.0687 11.1692 25.7709 10.0437 25.7562 8.55444V6.70874C25.7562 5.17554 26.0419 4.02563 26.6132 3.25903C27.1893 2.49243 28.0658 2.10913 29.2425 2.10913C30.4095 2.10913 31.2787 2.48267 31.85 3.22974C32.4261 3.97681 32.7215 5.09497 32.7362 6.58423V8.42993ZM30.9564 6.43774C30.9564 5.43677 30.8197 4.70435 30.5463 4.24048C30.2728 3.77173 29.8382 3.53735 29.2425 3.53735C28.6615 3.53735 28.2342 3.75952 27.9608 4.20386C27.6874 4.64331 27.5433 5.33179 27.5287 6.26929V8.68628C27.5287 9.68237 27.6678 10.4246 27.9462 10.9128C28.2245 11.4011 28.6615 11.6453 29.2572 11.6453C29.8285 11.6453 30.2508 11.4207 30.5243 10.9714C30.7977 10.5173 30.9418 9.80933 30.9564 8.84741V6.43774Z" fill="#F0A83E"/>
</svg>
