<svg width="54" height="12" viewBox="0 0 54 12" fill="none" xmlns="http://www.w3.org/2000/svg">
<path d="M3.44727 6.21191H1.54785V5.44531H3.44727C3.8151 5.44531 4.11296 5.38672 4.34082 5.26953C4.56868 5.15234 4.7347 4.98958 4.83887 4.78125C4.94629 4.57292 5 4.33529 5 4.06836C5 3.82422 4.94629 3.59473 4.83887 3.37988C4.7347 3.16504 4.56868 2.99251 4.34082 2.8623C4.11296 2.72884 3.8151 2.66211 3.44727 2.66211H1.76758V9H0.825195V1.89062H3.44727C3.98438 1.89062 4.43848 1.9834 4.80957 2.16895C5.18066 2.35449 5.46224 2.61165 5.6543 2.94043C5.84635 3.26595 5.94238 3.63867 5.94238 4.05859C5.94238 4.51432 5.84635 4.90332 5.6543 5.22559C5.46224 5.54785 5.18066 5.79362 4.80957 5.96289C4.43848 6.12891 3.98438 6.21191 3.44727 6.21191ZM6.68945 6.41699V6.30469C6.68945 5.92383 6.74479 5.57064 6.85547 5.24512C6.96615 4.91634 7.12565 4.63151 7.33398 4.39062C7.54232 4.14648 7.7946 3.95768 8.09082 3.82422C8.38704 3.6875 8.71908 3.61914 9.08691 3.61914C9.45801 3.61914 9.79167 3.6875 10.0879 3.82422C10.3874 3.95768 10.6413 4.14648 10.8496 4.39062C11.0612 4.63151 11.2223 4.91634 11.333 5.24512C11.4437 5.57064 11.499 5.92383 11.499 6.30469V6.41699C11.499 6.79785 11.4437 7.15104 11.333 7.47656C11.2223 7.80208 11.0612 8.08691 10.8496 8.33105C10.6413 8.57194 10.389 8.76074 10.0928 8.89746C9.7998 9.03092 9.46777 9.09766 9.09668 9.09766C8.72559 9.09766 8.39193 9.03092 8.0957 8.89746C7.79948 8.76074 7.54557 8.57194 7.33398 8.33105C7.12565 8.08691 6.96615 7.80208 6.85547 7.47656C6.74479 7.15104 6.68945 6.79785 6.68945 6.41699ZM7.59277 6.30469V6.41699C7.59277 6.68066 7.6237 6.92969 7.68555 7.16406C7.7474 7.39518 7.84017 7.60026 7.96387 7.7793C8.09082 7.95833 8.2487 8.09993 8.4375 8.2041C8.6263 8.30501 8.84603 8.35547 9.09668 8.35547C9.34408 8.35547 9.56055 8.30501 9.74609 8.2041C9.9349 8.09993 10.0911 7.95833 10.2148 7.7793C10.3385 7.60026 10.4313 7.39518 10.4932 7.16406C10.5583 6.92969 10.5908 6.68066 10.5908 6.41699V6.30469C10.5908 6.04427 10.5583 5.7985 10.4932 5.56738C10.4313 5.33301 10.3369 5.1263 10.21 4.94727C10.0863 4.76497 9.93001 4.62174 9.74121 4.51758C9.55566 4.41341 9.33757 4.36133 9.08691 4.36133C8.83952 4.36133 8.62142 4.41341 8.43262 4.51758C8.24707 4.62174 8.09082 4.76497 7.96387 4.94727C7.84017 5.1263 7.7474 5.33301 7.68555 5.56738C7.6237 5.7985 7.59277 6.04427 7.59277 6.30469ZM13.5352 4.54688V9H12.6318V3.7168H13.5107L13.5352 4.54688ZM15.1855 3.6875L15.1807 4.52734C15.1058 4.51107 15.0342 4.5013 14.9658 4.49805C14.9007 4.49154 14.8258 4.48828 14.7412 4.48828C14.5329 4.48828 14.349 4.52083 14.1895 4.58594C14.0299 4.65104 13.8949 4.74219 13.7842 4.85938C13.6735 4.97656 13.5856 5.11654 13.5205 5.2793C13.4587 5.4388 13.418 5.61458 13.3984 5.80664L13.1445 5.95312C13.1445 5.63411 13.1755 5.33464 13.2373 5.05469C13.3024 4.77474 13.4017 4.52734 13.5352 4.3125C13.6686 4.0944 13.8379 3.92513 14.043 3.80469C14.2513 3.68099 14.4987 3.61914 14.7852 3.61914C14.8503 3.61914 14.9251 3.62728 15.0098 3.64355C15.0944 3.65658 15.153 3.67122 15.1855 3.6875ZM18.4766 3.7168V4.41016H15.6201V3.7168H18.4766ZM16.5869 2.43262H17.4902V7.69141C17.4902 7.87044 17.5179 8.00553 17.5732 8.09668C17.6286 8.18783 17.7002 8.24805 17.7881 8.27734C17.876 8.30664 17.9704 8.32129 18.0713 8.32129C18.1462 8.32129 18.2243 8.31478 18.3057 8.30176C18.3903 8.28548 18.4538 8.27246 18.4961 8.2627L18.501 9C18.4294 9.02279 18.335 9.04395 18.2178 9.06348C18.1038 9.08626 17.9655 9.09766 17.8027 9.09766C17.5814 9.09766 17.3779 9.05371 17.1924 8.96582C17.0068 8.87793 16.8587 8.73145 16.748 8.52637C16.6406 8.31803 16.5869 8.03809 16.5869 7.68652V2.43262ZM22.7686 7.7793V3.7168H23.6768V9H22.8125L22.7686 7.7793ZM22.9395 6.66602L23.3154 6.65625C23.3154 7.00781 23.278 7.33333 23.2031 7.63281C23.1315 7.92904 23.0143 8.1862 22.8516 8.4043C22.6888 8.6224 22.4756 8.79329 22.2119 8.91699C21.9482 9.03743 21.6276 9.09766 21.25 9.09766C20.9928 9.09766 20.7568 9.06022 20.542 8.98535C20.3304 8.91048 20.1481 8.79492 19.9951 8.63867C19.8421 8.48242 19.7233 8.27897 19.6387 8.02832C19.5573 7.77767 19.5166 7.47656 19.5166 7.125V3.7168H20.4199V7.13477C20.4199 7.3724 20.446 7.56934 20.498 7.72559C20.5534 7.87858 20.6266 8.00065 20.7178 8.0918C20.8122 8.17969 20.9163 8.24154 21.0303 8.27734C21.1475 8.31315 21.2679 8.33105 21.3916 8.33105C21.7757 8.33105 22.0801 8.25781 22.3047 8.11133C22.5293 7.96159 22.6904 7.76139 22.7881 7.51074C22.889 7.25684 22.9395 6.97526 22.9395 6.66602ZM28.4766 3.7168H29.2969V8.8877C29.2969 9.35319 29.2025 9.75033 29.0137 10.0791C28.8249 10.4079 28.5612 10.6569 28.2227 10.8262C27.8874 10.9987 27.5 11.085 27.0605 11.085C26.8783 11.085 26.6634 11.0557 26.416 10.9971C26.1719 10.9417 25.931 10.8457 25.6934 10.709C25.459 10.5755 25.262 10.3949 25.1025 10.167L25.5762 9.62988C25.7975 9.89681 26.0286 10.0824 26.2695 10.1865C26.5137 10.2907 26.7546 10.3428 26.9922 10.3428C27.2786 10.3428 27.526 10.2891 27.7344 10.1816C27.9427 10.0742 28.1038 9.91471 28.2178 9.70312C28.335 9.49479 28.3936 9.23763 28.3936 8.93164V4.87891L28.4766 3.7168ZM24.8389 6.41699V6.31445C24.8389 5.91081 24.8861 5.5446 24.9805 5.21582C25.0781 4.88379 25.2165 4.59896 25.3955 4.36133C25.5778 4.1237 25.7975 3.94141 26.0547 3.81445C26.3118 3.68424 26.6016 3.61914 26.9238 3.61914C27.2559 3.61914 27.5456 3.67773 27.793 3.79492C28.0436 3.90885 28.2552 4.0765 28.4277 4.29785C28.6035 4.51595 28.7419 4.77962 28.8428 5.08887C28.9437 5.39811 29.0137 5.74805 29.0527 6.13867V6.58789C29.0169 6.97526 28.9469 7.32357 28.8428 7.63281C28.7419 7.94206 28.6035 8.20573 28.4277 8.42383C28.2552 8.64193 28.0436 8.80957 27.793 8.92676C27.5423 9.04069 27.2493 9.09766 26.9141 9.09766C26.5983 9.09766 26.3118 9.03092 26.0547 8.89746C25.8008 8.764 25.5827 8.57682 25.4004 8.33594C25.2181 8.09505 25.0781 7.81185 24.9805 7.48633C24.8861 7.15755 24.8389 6.80111 24.8389 6.41699ZM25.7422 6.31445V6.41699C25.7422 6.68066 25.7682 6.92806 25.8203 7.15918C25.8757 7.3903 25.9587 7.59375 26.0693 7.76953C26.1833 7.94531 26.3281 8.08366 26.5039 8.18457C26.6797 8.28223 26.8896 8.33105 27.1338 8.33105C27.4333 8.33105 27.6807 8.26758 27.876 8.14062C28.0713 8.01367 28.2259 7.84603 28.3398 7.6377C28.457 7.42936 28.5482 7.20312 28.6133 6.95898V5.78223C28.5775 5.60319 28.5221 5.43066 28.4473 5.26465C28.3757 5.09538 28.2812 4.94564 28.1641 4.81543C28.0501 4.68197 27.9085 4.57617 27.7393 4.49805C27.57 4.41992 27.3714 4.38086 27.1436 4.38086C26.8962 4.38086 26.6829 4.43294 26.5039 4.53711C26.3281 4.63802 26.1833 4.77799 26.0693 4.95703C25.9587 5.13281 25.8757 5.33789 25.8203 5.57227C25.7682 5.80339 25.7422 6.05078 25.7422 6.31445ZM33.9014 7.7793V3.7168H34.8096V9H33.9453L33.9014 7.7793ZM34.0723 6.66602L34.4482 6.65625C34.4482 7.00781 34.4108 7.33333 34.3359 7.63281C34.2643 7.92904 34.1471 8.1862 33.9844 8.4043C33.8216 8.6224 33.6084 8.79329 33.3447 8.91699C33.0811 9.03743 32.7604 9.09766 32.3828 9.09766C32.1257 9.09766 31.8896 9.06022 31.6748 8.98535C31.4632 8.91048 31.2809 8.79492 31.1279 8.63867C30.9749 8.48242 30.8561 8.27897 30.7715 8.02832C30.6901 7.77767 30.6494 7.47656 30.6494 7.125V3.7168H31.5527V7.13477C31.5527 7.3724 31.5788 7.56934 31.6309 7.72559C31.6862 7.87858 31.7594 8.00065 31.8506 8.0918C31.945 8.17969 32.0492 8.24154 32.1631 8.27734C32.2803 8.31315 32.4007 8.33105 32.5244 8.33105C32.9085 8.33105 33.2129 8.25781 33.4375 8.11133C33.6621 7.96159 33.8232 7.76139 33.9209 7.51074C34.0218 7.25684 34.0723 6.97526 34.0723 6.66602ZM33.0225 1.5L34.2334 2.83301V2.88184H33.4814L32.749 2.05664L32.0215 2.88184H31.2793V2.82812L32.4756 1.5H33.0225ZM38.3789 9.09766C38.0111 9.09766 37.6774 9.03581 37.3779 8.91211C37.0817 8.78516 36.8262 8.60775 36.6113 8.37988C36.3997 8.15202 36.237 7.88184 36.123 7.56934C36.0091 7.25684 35.9521 6.91504 35.9521 6.54395V6.33887C35.9521 5.90918 36.0156 5.52669 36.1426 5.19141C36.2695 4.85286 36.4421 4.56641 36.6602 4.33203C36.8783 4.09766 37.1257 3.92025 37.4023 3.7998C37.679 3.67936 37.9655 3.61914 38.2617 3.61914C38.6393 3.61914 38.9648 3.68424 39.2383 3.81445C39.515 3.94466 39.7412 4.12695 39.917 4.36133C40.0928 4.59245 40.223 4.86589 40.3076 5.18164C40.3923 5.49414 40.4346 5.83594 40.4346 6.20703V6.6123H36.4893V5.875H39.5312V5.80664C39.5182 5.57227 39.4694 5.3444 39.3848 5.12305C39.3034 4.90169 39.1732 4.7194 38.9941 4.57617C38.8151 4.43294 38.571 4.36133 38.2617 4.36133C38.0566 4.36133 37.8678 4.40527 37.6953 4.49316C37.5228 4.5778 37.3747 4.70475 37.251 4.87402C37.1273 5.04329 37.0312 5.25 36.9629 5.49414C36.8945 5.73828 36.8604 6.01986 36.8604 6.33887V6.54395C36.8604 6.7946 36.8945 7.0306 36.9629 7.25195C37.0345 7.47005 37.137 7.66211 37.2705 7.82812C37.4072 7.99414 37.5716 8.12435 37.7637 8.21875C37.959 8.31315 38.1803 8.36035 38.4277 8.36035C38.7467 8.36035 39.0169 8.29525 39.2383 8.16504C39.4596 8.03483 39.6533 7.86068 39.8193 7.64258L40.3662 8.07715C40.2523 8.24967 40.1074 8.41406 39.9316 8.57031C39.7559 8.72656 39.5394 8.85352 39.2822 8.95117C39.0283 9.04883 38.7272 9.09766 38.3789 9.09766ZM44.5654 7.59863C44.5654 7.46842 44.5361 7.34798 44.4775 7.2373C44.4222 7.12337 44.3066 7.02083 44.1309 6.92969C43.9583 6.83529 43.6979 6.75391 43.3496 6.68555C43.0566 6.6237 42.7913 6.55046 42.5537 6.46582C42.3193 6.38118 42.1191 6.27865 41.9531 6.1582C41.7904 6.03776 41.665 5.89616 41.5771 5.7334C41.4893 5.57064 41.4453 5.38021 41.4453 5.16211C41.4453 4.95378 41.4909 4.75684 41.582 4.57129C41.6764 4.38574 41.8083 4.22135 41.9775 4.07812C42.1501 3.9349 42.3568 3.82259 42.5977 3.74121C42.8385 3.65983 43.1071 3.61914 43.4033 3.61914C43.8265 3.61914 44.1878 3.69401 44.4873 3.84375C44.7868 3.99349 45.0163 4.19368 45.1758 4.44434C45.3353 4.69173 45.415 4.9668 45.415 5.26953H44.5117C44.5117 5.12305 44.4678 4.98145 44.3799 4.84473C44.2952 4.70475 44.1699 4.58919 44.0039 4.49805C43.8411 4.4069 43.641 4.36133 43.4033 4.36133C43.1527 4.36133 42.9492 4.40039 42.793 4.47852C42.64 4.55339 42.5277 4.64941 42.4561 4.7666C42.3877 4.88379 42.3535 5.00749 42.3535 5.1377C42.3535 5.23535 42.3698 5.32324 42.4023 5.40137C42.4382 5.47624 42.5 5.54622 42.5879 5.61133C42.6758 5.67318 42.7995 5.73177 42.959 5.78711C43.1185 5.84245 43.3219 5.89779 43.5693 5.95312C44.0023 6.05078 44.3587 6.16797 44.6387 6.30469C44.9186 6.44141 45.127 6.60905 45.2637 6.80762C45.4004 7.00618 45.4688 7.24707 45.4688 7.53027C45.4688 7.76139 45.4199 7.97298 45.3223 8.16504C45.2279 8.3571 45.0895 8.52311 44.9072 8.66309C44.7282 8.7998 44.5133 8.90723 44.2627 8.98535C44.0153 9.06022 43.737 9.09766 43.4277 9.09766C42.9622 9.09766 42.5684 9.01465 42.2461 8.84863C41.9238 8.68262 41.6797 8.46777 41.5137 8.2041C41.3477 7.94043 41.2646 7.66211 41.2646 7.36914H42.1729C42.1859 7.61654 42.2575 7.81348 42.3877 7.95996C42.5179 8.10319 42.6774 8.20573 42.8662 8.26758C43.055 8.32617 43.2422 8.35547 43.4277 8.35547C43.6751 8.35547 43.8818 8.32292 44.0479 8.25781C44.2171 8.19271 44.3457 8.10319 44.4336 7.98926C44.5215 7.87533 44.5654 7.74512 44.5654 7.59863Z" fill="#F3F3F3"/>
<path d="M46.5 5L49.25 7.75L52 5" stroke="#F3F3F3"/>
</svg>
