<svg width="36" height="12" viewBox="0 0 36 12" fill="none" xmlns="http://www.w3.org/2000/svg">
<path d="M3.35938 5.6748H1.55762L1.54785 4.91797H3.18359C3.45378 4.91797 3.68978 4.8724 3.8916 4.78125C4.09342 4.6901 4.24967 4.5599 4.36035 4.39062C4.47428 4.2181 4.53125 4.01302 4.53125 3.77539C4.53125 3.51497 4.48079 3.30339 4.37988 3.14062C4.28223 2.97461 4.13086 2.85417 3.92578 2.7793C3.72396 2.70117 3.4668 2.66211 3.1543 2.66211H1.76758V9H0.825195V1.89062H3.1543C3.51888 1.89062 3.8444 1.92806 4.13086 2.00293C4.41732 2.07454 4.65983 2.18848 4.8584 2.34473C5.06022 2.49772 5.21322 2.69303 5.31738 2.93066C5.42155 3.16829 5.47363 3.45312 5.47363 3.78516C5.47363 4.07812 5.39876 4.34342 5.24902 4.58105C5.09928 4.81543 4.89095 5.00749 4.62402 5.15723C4.36035 5.30697 4.05111 5.40299 3.69629 5.44531L3.35938 5.6748ZM3.31543 9H1.18652L1.71875 8.2334H3.31543C3.61491 8.2334 3.86882 8.18132 4.07715 8.07715C4.28874 7.97298 4.44987 7.8265 4.56055 7.6377C4.67122 7.44564 4.72656 7.2194 4.72656 6.95898C4.72656 6.69531 4.67936 6.46745 4.58496 6.27539C4.49056 6.08333 4.34245 5.93522 4.14062 5.83105C3.9388 5.72689 3.67839 5.6748 3.35938 5.6748H2.0166L2.02637 4.91797H3.8623L4.0625 5.19141C4.4043 5.2207 4.69401 5.31836 4.93164 5.48438C5.16927 5.64714 5.34993 5.85547 5.47363 6.10938C5.60059 6.36328 5.66406 6.64323 5.66406 6.94922C5.66406 7.39193 5.56641 7.76628 5.37109 8.07227C5.17904 8.375 4.90723 8.60612 4.55566 8.76562C4.2041 8.92188 3.79069 9 3.31543 9ZM7.05566 1.89062H9.40918C9.94303 1.89062 10.3939 1.97201 10.7617 2.13477C11.1328 2.29753 11.4144 2.53841 11.6064 2.85742C11.8018 3.17318 11.8994 3.56217 11.8994 4.02441C11.8994 4.34993 11.8327 4.64779 11.6992 4.91797C11.569 5.1849 11.3802 5.41276 11.1328 5.60156C10.8887 5.78711 10.5957 5.92546 10.2539 6.0166L9.99023 6.11914H7.77832L7.76855 5.35254H9.43848C9.77702 5.35254 10.0586 5.29395 10.2832 5.17676C10.5078 5.05632 10.6771 4.89518 10.791 4.69336C10.9049 4.49154 10.9619 4.26855 10.9619 4.02441C10.9619 3.75098 10.9082 3.51172 10.8008 3.30664C10.6934 3.10156 10.5241 2.94368 10.293 2.83301C10.0651 2.71908 9.77051 2.66211 9.40918 2.66211H7.99805V9H7.05566V1.89062ZM11.2109 9L9.48242 5.77734L10.4639 5.77246L12.2168 8.94141V9H11.2109ZM17.5293 8.2334V9H13.9746V8.2334H17.5293ZM14.1602 1.89062V9H13.2178V1.89062H14.1602ZM21.0742 0.738281V2.22754H20.3418V0.738281H21.0742ZM20.9863 8.71191V10.0156H20.2588V8.71191H20.9863ZM21.9629 7.16895C21.9629 6.97363 21.9189 6.79785 21.8311 6.6416C21.7432 6.48535 21.5983 6.34212 21.3965 6.21191C21.1947 6.08171 20.9245 5.96126 20.5859 5.85059C20.1758 5.72363 19.821 5.56901 19.5215 5.38672C19.2253 5.20443 18.9958 4.97819 18.833 4.70801C18.6735 4.43783 18.5938 4.11068 18.5938 3.72656C18.5938 3.32617 18.68 2.98112 18.8525 2.69141C19.0251 2.40169 19.2692 2.17871 19.585 2.02246C19.9007 1.86621 20.2718 1.78809 20.6982 1.78809C21.0303 1.78809 21.3265 1.83854 21.5869 1.93945C21.8473 2.03711 22.0671 2.18359 22.2461 2.37891C22.4284 2.57422 22.5667 2.81348 22.6611 3.09668C22.7588 3.37988 22.8076 3.70703 22.8076 4.07812H21.9092C21.9092 3.86003 21.8831 3.65983 21.8311 3.47754C21.779 3.29525 21.7008 3.13737 21.5967 3.00391C21.4925 2.86719 21.3656 2.76302 21.2158 2.69141C21.0661 2.61654 20.8936 2.5791 20.6982 2.5791C20.4248 2.5791 20.1986 2.6263 20.0195 2.7207C19.8438 2.8151 19.7135 2.94857 19.6289 3.12109C19.5443 3.29036 19.502 3.4873 19.502 3.71191C19.502 3.92025 19.5443 4.10254 19.6289 4.25879C19.7135 4.41504 19.8568 4.55664 20.0586 4.68359C20.2637 4.80729 20.5452 4.92936 20.9033 5.0498C21.3232 5.18327 21.6797 5.34115 21.9727 5.52344C22.2656 5.70247 22.4886 5.92383 22.6416 6.1875C22.7946 6.44792 22.8711 6.77181 22.8711 7.15918C22.8711 7.5791 22.7767 7.93392 22.5879 8.22363C22.3991 8.51009 22.1338 8.72819 21.792 8.87793C21.4502 9.02767 21.0498 9.10254 20.5908 9.10254C20.3141 9.10254 20.0407 9.0651 19.7705 8.99023C19.5003 8.91536 19.2562 8.79329 19.0381 8.62402C18.82 8.4515 18.6458 8.22526 18.5156 7.94531C18.3854 7.66211 18.3203 7.31543 18.3203 6.90527H19.2285C19.2285 7.18197 19.2676 7.41146 19.3457 7.59375C19.4271 7.77279 19.5345 7.91602 19.668 8.02344C19.8014 8.1276 19.9479 8.20247 20.1074 8.24805C20.2702 8.29036 20.4313 8.31152 20.5908 8.31152C20.8838 8.31152 21.1312 8.26595 21.333 8.1748C21.5381 8.0804 21.6943 7.94694 21.8018 7.77441C21.9092 7.60189 21.9629 7.40007 21.9629 7.16895Z" fill="#F3F3F3"/>
<path d="M28.5 5L31.25 7.75L34 5" stroke="#F3F3F3"/>
</svg>
